HIERARCHY
ROOT root
{
	OFFSET 0.000000 0.000000 0.000000
	CHANNELS 6 Xposition Yposition Zposition Zrotation Yrotation Xrotation
	JOINT lhip
	{
		OFFSET 0.058581 -0.082280 -0.017664
		CHANNELS 3 Zrotation Yrotation Xrotation
		JOINT lknee
		{
			OFFSET 0.043451 -0.386469 0.008037
			CHANNELS 3 Zrotation Yrotation Xrotation
			JOINT lankle
			{
				OFFSET -0.014790 -0.426874 -0.037428
				CHANNELS 3 Zrotation Yrotation Xrotation
				JOINT ltoe
				{
					OFFSET 0.041054 -0.060286 0.122042
					CHANNELS 3 Zrotation Yrotation Xrotation
					End Site
					{
						OFFSET 0.000000 0.000000 0.000000
					}
				}
			}
		}
	}
	JOINT rhip
	{
		OFFSET -0.060310 -0.090513 -0.013543
		CHANNELS 3 Zrotation Yrotation Xrotation
		JOINT rknee
		{
			OFFSET -0.043257 -0.383688 -0.004843
			CHANNELS 3 Zrotation Yrotation Xrotation
			JOINT rankle
			{
				OFFSET 0.019056 -0.420046 -0.034562
				CHANNELS 3 Zrotation Yrotation Xrotation
				JOINT rtoe
				{
					OFFSET -0.034840 -0.062106 0.130323
					CHANNELS 3 Zrotation Yrotation Xrotation
					End Site
					{
						OFFSET 0.000000 0.000000 0.000000
					}
				}
			}
		}
	}
	JOINT lowerback
	{
		OFFSET 0.004439 0.124404 -0.038385
		CHANNELS 3 Zrotation Yrotation Xrotation
		JOINT upperback
		{
			OFFSET 0.004488 0.137956 0.026820
			CHANNELS 3 Zrotation Yrotation Xrotation
			JOINT chest
			{
				OFFSET -0.002265 0.056032 0.002855
				CHANNELS 3 Zrotation Yrotation Xrotation
				JOINT lowerneck
				{
					OFFSET -0.013390 0.211636 -0.033468
					CHANNELS 3 Zrotation Yrotation Xrotation
					JOINT upperneck
					{
						OFFSET 0.010113 0.088937 0.050410
						CHANNELS 3 Zrotation Yrotation Xrotation
						End Site
						{
							OFFSET 0.000000 0.000000 0.000000
						}
					}
				}
				JOINT lclavicle
				{
					OFFSET 0.071702 0.114000 -0.018898
					CHANNELS 3 Zrotation Yrotation Xrotation
					JOINT lshoulder
					{
						OFFSET 0.122921 0.045205 -0.019046
						CHANNELS 3 Zrotation Yrotation Xrotation
						JOINT lelbow
						{
							OFFSET 0.255332 -0.015649 -0.022946
							CHANNELS 3 Zrotation Yrotation Xrotation
							JOINT lwrist
							{
								OFFSET 0.265709 0.012698 -0.007375
								CHANNELS 3 Zrotation Yrotation Xrotation
								End Site
								{
									OFFSET 0.000000 0.000000 0.000000
								}
							}
						}
					}
				}
				JOINT rclavicle
				{
					OFFSET -0.082954 0.112472 -0.023707
					CHANNELS 3 Zrotation Yrotation Xrotation
					JOINT rshoulder
					{
						OFFSET -0.113228 0.046853 -0.008472
						CHANNELS 3 Zrotation Yrotation Xrotation
						JOINT relbow
						{
							OFFSET -0.260127 -0.014369 -0.031269
							CHANNELS 3 Zrotation Yrotation Xrotation
							JOINT rwrist
							{
								OFFSET -0.269108 0.006794 -0.006027
								CHANNELS 3 Zrotation Yrotation Xrotation
								End Site
								{
									OFFSET 0.000000 0.000000 0.000000
								}
							}
						}
					}
				}
			}
		}
	}
}
MOTION
Frames: 10
Frame Time: 0.033333
-0.156687 0.523902 0.998268 -3.524233 1.599627 84.758686 2.405708 2.341244 8.792948 -2.011187 -3.869866 12.460752 2.353167 14.137046 -20.502439 0.000000 -0.000000 0.000000 4.093260 1.345974 1.033257 1.560907 6.926126 13.680648 2.590949 -2.604620 -12.707893 0.000000 -0.000000 0.000000 -0.262871 -0.684127 6.558504 2.111064 -2.584112 4.287870 0.166797 -1.440035 3.131037 2.046313 5.647073 0.077665 -2.420332 5.587576 4.477189 -28.812951 2.922422 0.679213 -56.373337 -5.046473 9.383788 11.380358 -33.880532 2.771787 2.699071 -4.398500 -7.977037 29.248753 -0.663632 2.493513 47.868214 3.177282 10.391761 -24.470283 31.641219 -8.466327 8.306840 3.792802 2.641163 
-0.163003 0.515431 0.996504 -1.934149 1.319610 83.638026 2.609738 1.671151 6.324748 -2.472919 -2.445186 20.176964 2.125720 13.482919 -20.660204 0.000000 -0.000000 0.000000 4.092791 0.742518 3.116827 1.716362 5.944416 13.496434 1.811295 -2.820877 -13.650079 0.000000 -0.000000 0.000000 0.253236 0.151455 7.719814 2.902542 -3.215837 4.385040 0.063546 -1.719855 3.216397 2.505885 6.340322 -0.711456 -3.170660 4.446675 5.615811 -29.034396 2.662109 1.829554 -55.387069 -5.596999 9.961123 9.844846 -34.233677 5.641412 1.673622 -5.219272 -6.964172 30.173530 0.107877 2.576231 51.492903 2.884451 11.964411 -23.426349 28.500790 -6.201421 7.574503 3.866068 2.062446 
-0.169063 0.507148 0.996118 -0.873636 0.995402 82.680632 2.659685 1.155578 3.431949 -2.607561 -0.795882 28.080667 1.861507 13.283027 -19.455589 0.000000 -0.000000 0.000000 4.210992 0.044625 4.939375 1.488185 5.429272 13.239537 0.986729 -2.810994 -14.380774 0.000000 -0.000000 0.000000 0.592897 1.149518 8.772172 3.478155 -3.609554 4.336862 0.182767 -1.691969 3.159585 2.866906 6.181363 -0.655210 -3.198031 3.608436 6.277033 -29.126043 2.164375 2.917369 -55.170129 -5.798286 10.167577 9.314277 -34.415184 7.863283 2.160384 -5.516043 -6.819651 30.673305 0.904674 2.935350 54.516878 2.534794 12.733028 -22.560716 25.839212 -4.873629 5.689111 3.995269 1.109315 
-0.176789 0.496064 0.996162 -0.385443 0.670373 81.613200 2.928471 1.039058 -0.126414 -2.105074 2.013365 36.832487 1.751826 13.919173 -17.770964 0.000000 -0.000000 0.000000 4.333651 -0.524370 7.109401 1.414647 5.224939 12.877773 0.103954 -2.518675 -15.200017 0.000000 -0.000000 0.000000 0.891506 2.258070 9.800877 3.866342 -3.560252 4.108829 0.453191 -1.252268 3.189749 3.263981 5.319884 0.119423 -2.511814 2.726042 7.127112 -28.723784 1.596592 3.468104 -56.410225 -5.350121 9.903434 9.950774 -34.118992 8.312739 4.372038 -4.686371 -8.000968 30.513564 1.623169 3.562412 57.806512 2.367249 12.916707 -21.533904 24.115274 -3.866755 2.421228 3.651837 -0.666773 
-0.181243 0.489030 0.995840 -0.102770 0.408399 81.100285 3.010438 0.974990 -2.192747 -1.450550 3.791217 40.570748 1.926655 14.532247 -17.674815 0.000000 -0.000000 0.000000 4.349776 -0.842794 8.508640 1.289674 5.295552 12.285171 -0.215721 -2.565000 -15.446825 0.000000 -0.000000 0.000000 0.987031 2.744900 10.332355 3.887744 -3.472239 3.680937 0.490621 -0.981594 3.404633 3.525191 4.757444 0.514117 -1.956547 2.402187 8.107561 -28.425360 1.672280 3.600981 -57.054321 -5.053842 9.556551 10.154882 -33.891461 7.813406 5.780133 -4.051710 -8.821339 30.346050 1.860697 3.732391 59.251142 2.350067 13.164265 -20.982830 23.870785 -3.225276 0.608856 3.593670 -0.731184 
-0.186534 0.479236 0.995826 0.037836 -0.069338 80.514111 2.759659 0.552912 -4.638656 -0.745269 5.960733 43.656298 2.294424 15.141403 -17.535673 0.000000 -0.000000 0.000000 4.226041 -1.338962 10.560659 0.945853 5.656560 10.932596 -0.515841 -2.653635 -15.555972 0.000000 -0.000000 0.000000 1.077793 3.480280 10.967607 3.754397 -3.426360 3.049122 0.399650 -0.711345 3.686615 3.926230 4.236698 1.020525 -1.506574 2.259122 9.770357 -28.488926 2.241252 3.578513 -57.373031 -4.668639 9.245242 10.376621 -33.649321 6.967382 7.304877 -3.850344 -9.386151 30.365937 1.936366 3.754869 60.025815 2.431762 13.854801 -20.366387 24.272785 -1.926248 -1.026127 4.004382 0.474100 
-0.191302 0.468832 0.995925 -0.249192 -0.458954 79.965287 2.420203 0.312247 -6.682079 -0.611995 7.395754 44.754776 2.232035 15.071360 -17.182761 0.000000 -0.000000 0.000000 3.985239 -2.319986 12.696527 0.529244 6.735825 9.346670 -0.379472 -2.366099 -15.622570 0.000000 -0.000000 0.000000 1.638631 4.173287 11.530706 3.310464 -3.213984 2.535718 -0.160534 -0.476848 3.965205 4.504989 4.236282 1.347453 -1.099378 2.327232 11.733668 -28.259033 3.033424 2.655619 -57.941609 -3.876824 9.571012 11.118778 -33.122619 5.491392 7.676449 -3.895527 -7.957033 30.615550 1.846417 3.392956 59.650158 2.344712 13.680961 -19.477535 25.339172 -0.652172 -0.838544 4.665320 3.110285 
-0.195283 0.458123 0.995680 -0.663554 -0.754763 79.843649 1.996942 -0.276762 -8.716454 -0.983006 8.662121 43.760532 2.166329 14.960346 -16.759886 0.000000 -0.000000 0.000000 3.565936 -2.653108 14.277315 0.662332 7.132167 7.867267 -0.373098 -1.879900 -15.626520 0.000000 -0.000000 0.000000 1.931587 4.987037 11.518904 3.122919 -3.335988 2.370477 -0.065614 -0.302621 4.033952 3.931527 3.778051 2.823013 -1.269950 3.277495 11.349459 -29.270100 3.741098 2.882327 -57.700232 -3.398047 8.924046 11.189778 -33.159381 5.675213 10.389796 -3.781228 -7.820644 29.983842 1.364152 3.462120 58.362986 2.731854 14.349167 -17.893605 27.055549 0.574910 -2.534281 4.967105 1.814228 
-0.199930 0.447952 0.994295 -1.274432 -0.655587 79.945578 1.978898 -0.085129 -10.843848 -1.149245 9.864909 41.470951 1.979539 14.535850 -16.507251 0.000000 -0.000000 0.000000 3.475850 -3.459596 15.458903 0.742786 8.025529 6.719062 -0.154637 -1.090685 -15.854698 0.000000 -0.000000 0.000000 2.606853 5.411105 11.581451 2.741159 -3.017643 2.058781 -0.461682 -0.011936 4.343431 4.216183 4.282030 2.744360 -0.960033 3.396571 12.204808 -28.587296 4.438379 1.594500 -58.884329 -2.413377 9.541920 11.652993 -32.377221 4.967418 8.889089 -3.798415 -6.898838 29.595810 1.079636 3.054301 57.089554 2.882277 13.760379 -16.400150 29.224164 1.377819 -1.068578 5.479806 2.660624 
-0.205271 0.434264 0.992229 -1.983013 -0.795128 80.146382 1.390153 -0.318653 -12.570515 -1.536655 11.793111 35.656963 1.981078 14.725142 -15.583235 0.000000 -0.000000 0.000000 3.246868 -3.469769 16.947023 0.957325 8.481196 5.254304 -0.180987 -0.618758 -15.898414 0.000000 -0.000000 0.000000 2.531697 6.086884 11.804952 2.497636 -2.966861 1.959048 -0.080803 0.317770 4.232775 3.515361 4.048126 3.206326 -0.985430 4.224737 10.712634 -29.468951 4.756271 1.861742 -58.335987 -1.564310 9.092294 10.480115 -32.457287 5.714849 9.245369 -3.954596 -7.649034 28.740204 0.770789 3.203088 54.698327 3.559847 14.421407 -14.677066 31.661449 2.515512 -1.257703 5.942616 0.826100 
